<?xml version="1.0" encoding="UTF-8" ?>
<!DOCTYPE svg PUBLIC "-//W3C//DTD SVG 1.1//EN" "http://www.w3.org/Graphics/SVG/1.1/DTD/svg11.dtd">
<svg width="280px" height="152px" viewBox="0 0 280 152" version="1.1" xmlns="http://www.w3.org/2000/svg">
<path stroke-width="0.09375" opacity="0.86" d=" M 67.19 18.19 C 68.48 12.28 69.70 6.37 71.00 0.46 C 72.38 6.35 73.58 12.27 74.85 18.18 C 80.56 19.65 86.54 20.28 92.11 22.18 C 86.36 23.40 80.62 24.63 74.87 25.87 C 73.57 31.77 72.40 37.70 71.01 43.58 C 69.69 37.69 68.48 31.78 67.20 25.89 C 61.28 24.56 55.33 23.39 49.43 22.00 C 55.34 20.72 61.27 19.47 67.19 18.19 M 68.86 19.87 C 65.54 20.58 62.22 21.28 58.91 22.03 C 62.22 22.79 65.54 23.48 68.86 24.19 C 69.80 27.13 69.57 30.55 71.25 33.21 C 71.94 30.21 72.53 27.19 73.19 24.18 C 76.50 23.49 79.81 22.80 83.11 22.03 C 79.81 21.27 76.50 20.58 73.19 19.88 C 72.52 16.80 71.92 13.70 71.17 10.65 C 69.82 13.54 69.69 16.81 68.86 19.87 Z" />
<path stroke-width="0.09375" opacity="0.86" d=" M 203.35 20.24 C 206.64 18.98 209.68 23.60 207.01 25.99 C 194.65 38.65 181.98 51.02 169.55 63.61 C 168.37 64.76 167.24 65.98 165.84 66.85 C 163.52 68.04 160.57 65.52 161.09 63.04 C 161.15 61.75 162.29 60.94 163.03 60.03 C 175.53 47.53 188.05 35.04 200.53 22.51 C 201.41 21.69 202.26 20.79 203.35 20.24 Z" />
<path stroke-width="0.09375" opacity="0.86" d=" M 87.01 47.93 C 87.00 41.59 92.77 36.24 98.99 36.15 C 121.99 36.07 144.99 36.14 168.00 36.11 C 168.00 38.49 168.00 40.86 167.99 43.23 C 145.31 43.24 122.62 43.23 99.94 43.23 C 97.44 43.04 94.86 44.65 94.23 47.12 C 93.85 49.05 94.01 51.03 94.00 52.98 C 94.03 74.77 93.97 96.56 94.03 118.35 C 101.02 113.88 107.97 109.34 114.95 104.86 C 117.04 103.42 119.69 104.11 122.05 104.01 C 141.05 103.99 160.06 104.05 179.06 103.98 C 181.76 104.16 184.20 101.76 184.14 99.08 C 184.20 85.72 184.14 72.36 184.16 59.01 C 186.54 59.00 188.92 59.00 191.30 59.01 C 191.30 72.32 191.30 85.64 191.30 98.96 C 191.48 105.04 186.22 110.86 180.06 110.99 C 159.51 111.25 138.93 110.80 118.39 111.20 C 111.54 115.37 104.90 119.92 98.09 124.18 C 95.76 125.60 93.64 127.50 90.98 128.26 C 88.55 128.75 86.63 126.39 86.97 124.09 C 86.97 98.70 86.89 73.31 87.01 47.93 Z" />
<path stroke-width="0.09375" opacity="0.86" d=" M 105.00 62.00 C 120.67 62.00 136.33 62.00 152.00 62.00 C 151.99 63.67 151.99 65.33 152.00 67.00 C 136.33 67.00 120.66 67.00 105.00 67.00 C 105.01 65.33 105.01 63.67 105.00 62.00 Z" />
<path stroke-width="0.09375" opacity="0.86" d=" M 105.00 82.00 C 125.00 82.00 145.00 82.00 165.00 82.00 C 164.99 83.67 164.99 85.33 165.00 87.00 C 145.00 87.00 125.00 87.00 105.00 87.00 C 105.01 85.33 105.01 83.67 105.00 82.00 Z" />
<path stroke-width="0.09375" opacity="0.86" d=" M 170.00 82.00 C 171.66 82.01 173.33 82.01 175.00 81.99 C 174.99 83.66 174.99 85.33 175.01 87.00 C 173.33 86.99 171.66 86.99 170.00 87.01 C 170.01 85.33 170.01 83.66 170.00 82.00 Z" />
<path stroke-width="0.09375" opacity="0.86" d=" M 206.80 102.92 C 209.09 109.22 209.77 116.09 211.42 122.61 C 218.13 124.12 224.90 125.38 231.59 127.00 C 224.91 128.63 218.15 129.94 211.44 131.43 C 209.94 138.15 208.63 144.91 207.00 151.61 C 205.38 144.91 204.12 138.14 202.61 131.42 C 195.84 129.94 189.04 128.59 182.30 127.00 C 189.05 125.43 195.85 124.10 202.63 122.63 C 204.02 116.06 205.40 109.49 206.80 102.92 Z" />
</svg>
