<svg xmlns="http://www.w3.org/2000/svg"
	 viewBox="0 0 98.2 17" style="enable-background:new 0 0 98.2 17;" xml:space="preserve">
<path fill="currentColor" d="M3.4,6.3l7.3,7.3h3L3.4,3.3V6.3z M10.2,8.1l3.4,3.4V3.3h-3.4V8.1z M3.4,13.6h5.1L3.4,8.5V13.6z M21.4,5.1h4.3
	V3.3h-4.3V5.1z M18.8,3.3h-3.4v10.3h10.3v-3.4h-6.9V3.3z M21.4,8.5h4.3V6.8h-4.3V8.5z M32.5,5.1h2.6v1.7h-2.6v1.7h5.1V3.3h-5.1V5.1z
	 M27.4,13.6h3.4V3.3h-3.4V13.6z M47.1,6.8h-5.1V3.3h-2.6v6.9l3.4,3.4h3.4l3.4-3.4V3.3h-2.6V6.8z M59.1,13.6h2.6V3.3l-2.6,2.6V13.6z
	 M53.9,4.2l2.6,2.6l2.6-2.6H53.9z M51.4,13.6h2.6V5.9l-2.6-2.6V13.6z M65.9,3.3l-2.6,2.6v5.1l2.6,2.6h5.1l2.6-2.6V5.9l-2.6-2.6H65.9
	z M85.7,13.6l-5.1-5.1v5.1H85.7z M80.5,5.1h2.6v1.7h-2.6v1.7h5.1V3.3h-5.1V5.1z M75.4,13.6h3.4V3.3h-3.4V13.6z M89.9,3.3v2.6h5.1
	V3.3H89.9z M89.9,13.6h5.1v-2.6h-5.1V13.6z M89.9,9.8h5.1V7.2h-5.1V9.8z"/>
</svg>
