<?xml version="1.0" encoding="UTF-8"?>
<svg id="a" data-name="layer" xmlns="http://www.w3.org/2000/svg" viewBox="0 0 91.71 10.29">
  <path d="M0,0L10.29,10.29h-3L0,3V0ZM0,10.29V5.14l5.14,5.14H0ZM10.29,0V8.14l-3.43-3.43V0h3.43Z"/>
  <path d="M12,10.29V0h3.43V6.86h6.86v3.43H12ZM22.29,0V1.71h-4.29V0h4.29Zm0,3.43v1.71h-4.29v-1.71h4.29Z"/>
  <path d="M24,10.29V0h3.43V10.29h-3.43ZM34.29,0V5.14h-5.14v-1.71h2.57V1.71h-2.57V0h5.14Z"/>
  <path d="M36,6.86V0h2.57V3.43h5.14V0h2.57V6.86l-3.43,3.43h-3.43l-3.43-3.43Z"/>
  <path d="M48,10.29V0l2.57,2.57v7.71h-2.57ZM50.57,.86h5.14l-2.57,2.57-2.57-2.57Zm7.71,9.43h-2.57V2.57l2.57-2.57V10.29Z"/>
  <path d="M62.57,10.29l-2.57-2.57V2.57l2.57-2.57h5.14l2.57,2.57V7.71l-2.57,2.57h-5.14Z"/>
  <path d="M72,10.29V0h3.43V10.29h-3.43ZM82.29,0V5.14h-5.14v-1.71h2.57V1.71h-2.57V0h5.14Zm0,10.29h-5.14V5.14l5.14,5.14Z"/>
  <path d="M86.57,0h5.14V2.57h-5.14V0Zm0,3.86h5.14v2.57h-5.14V3.86Zm5.14,6.43h-5.14v-2.57h5.14v2.57Z"/>
</svg>