<?xml version="1.0" encoding="utf-8"?>
<!-- Generator: Adobe Illustrator 27.0.1, SVG Export Plug-In . SVG Version: 6.00 Build 0)  -->
<svg version="1.1" id="Слой_1" xmlns="http://www.w3.org/2000/svg" xmlns:xlink="http://www.w3.org/1999/xlink" x="0px" y="0px"
	 viewBox="0 0 98.2 17" style="enable-background:new 0 0 98.2 17;" xml:space="preserve">
<g>
	<path d="M3.4,3.3l10.3,10.3h-3L3.4,6.3V3.3z M3.4,13.6V8.5l5.1,5.1H3.4z M13.7,3.3v8.1l-3.4-3.4V3.3H13.7z"/>
	<path d="M15.4,13.6V3.3h3.4v6.9h6.9v3.4H15.4z M25.7,3.3v1.7h-4.3V3.3H25.7z M25.7,6.8v1.7h-4.3V6.8H25.7z"/>
	<path d="M27.4,13.6V3.3h3.4v10.3H27.4z M37.7,3.3v5.1h-5.1V6.8h2.6V5.1h-2.6V3.3H37.7z"/>
	<path d="M39.4,10.2V3.3h2.6v3.4h5.1V3.3h2.6v6.9l-3.4,3.4h-3.4L39.4,10.2z"/>
	<path d="M51.4,13.6V3.3l2.6,2.6v7.7H51.4z M53.9,4.2h5.1l-2.6,2.6L53.9,4.2z M61.7,13.6h-2.6V5.9l2.6-2.6V13.6z"/>
	<path d="M65.9,13.6l-2.6-2.6V5.9l2.6-2.6h5.1l2.6,2.6v5.1l-2.6,2.6H65.9z"/>
	<path d="M75.4,13.6V3.3h3.4v10.3H75.4z M85.7,3.3v5.1h-5.1V6.8h2.6V5.1h-2.6V3.3H85.7z M85.7,13.6h-5.1V8.5L85.7,13.6z"/>
	<path d="M89.9,3.3h5.1v2.6h-5.1V3.3z M89.9,7.2h5.1v2.6h-5.1V7.2z M95.1,13.6h-5.1v-2.6h5.1V13.6z"/>
</g>
</svg>
